Music_MeetProfOak_Ch1::
	tempo 112
	volume 7, 7
	duty_cycle 3
	vibrato 8, 2, 2
	note_type 12, 10, 5
	octave 3
	note B_, 1
	octave 4
	note C_, 1
	note D_, 2
.mainloop:
	note E_, 4
	note D_, 2
	note C_, 4
	octave 3
	note B_, 2
	octave 4
	note C_, 2
	note D_, 2
	note G_, 2
	note F#, 2
	note G_, 2
	note A_, 4
	note G_, 2
	note F#, 2
	note G_, 4
	note E_, 2
	note D_, 2
	note C_, 4
	octave 3
	note B_, 2
	octave 4
	note C_, 2
	note D_, 6
	note C_, 2
	octave 3
	note B_, 4
	note A_, 4
	note G_, 2
	note A_, 2
	note B_, 2
	octave 4
	note C_, 2
	sound_loop 0, .mainloop

Music_MeetProfOak_Ch2::
	duty_cycle 2
	vibrato 10, 3, 3
	note_type 12, 12, 6
	octave 4
	note G_, 1
	note A_, 1
	note B_, 2
.mainloop:
	octave 5
	note C_, 4
	octave 4
	note B_, 2
	note A_, 4
	note G_, 2
	note A_, 2
	note B_, 2
	octave 5
	note D_, 2
	note C_, 2
	octave 4
	note B_, 2
	octave 5
	note C_, 4
	octave 4
	note B_, 2
	note A_, 2
	note B_, 4
	note G_, 2
	note F#, 2
	note G_, 4
	note E_, 2
	note F#, 2
	note G_, 6
	note E_, 2
	note D_, 4
	note C_, 4
	octave 3
	note B_, 2
	octave 4
	note C_, 2
	note D_, 2
	note E_, 2
	sound_loop 0, .mainloop

Music_MeetProfOak_Ch3::
	note_type 12, 1, 4
	octave 3
	note G_, 1
	rest 1
	note A_, 1
	rest 1
.mainloop:
	note B_, 1
	rest 1
	octave 4
	note C_, 1
	rest 1
	note D_, 1
	rest 1
	note E_, 1
	rest 1
	note D_, 1
	rest 1
	note C_, 1
	rest 1
	octave 3
	note B_, 1
	rest 1
	note A_, 1
	rest 1
	note G_, 1
	rest 1
	note A_, 1
	rest 1
	note B_, 1
	rest 3
	note G_, 1
	rest 1
	note B_, 1
	rest 3
	note A_, 1
	rest 3
	note G_, 1
	rest 3
	note F#, 1
	rest 3
	note G_, 1
	rest 1
	note A_, 1
	rest 1
	note B_, 1
	rest 1
	octave 4
	note C_, 1
	rest 1
	sound_loop 0, .mainloop

Music_MeetProfOak_Ch4::
	drum_speed 12
	rest 4
.mainloop:
	drum_note 5, 2
	drum_note 6, 2
	drum_note 5, 2
	drum_note 6, 2
	drum_note 5, 2
	drum_note 6, 2
	drum_note 5, 2
	drum_note 6, 2
	drum_note 5, 2
	drum_note 6, 2
	drum_note 5, 2
	drum_note 6, 2
	drum_note 5, 2
	drum_note 6, 1
	drum_note 6, 1
	drum_note 5, 2
	drum_note 6, 2
	sound_loop 0, .mainloop
