Music_PalletTown_Ch1::
	tempo 120
	volume 7, 7
	duty_cycle 2
	vibrato 4, 1, 2
	note_type 12, 10, 3
	octave 3
	note E_, 2
	note G_, 2
.mainloop:
	note_type 12, 10, 7
	note B_, 4
	note A_, 4
	note G_, 6
	note E_, 2
	note F_, 8
	note E_, 4
	note D_, 4
	note C_, 4
	note D_, 4
	note E_, 8
	note G_, 8
	note F_, 4
	note E_, 4
	note D_, 4
	note F_, 4
	note E_, 8
	note C_, 8
	note E_, 4
	note G_, 4
	note F_, 6
	note E_, 2
	note D_, 8
	sound_loop 0, .mainloop

Music_PalletTown_Ch2::
	duty_cycle 2
	vibrato 5, 2, 3
	note_type 12, 12, 3
	octave 4
	note C_, 2
	note E_, 2
.mainloop:
	note_type 12, 12, 7
	note G_, 4
	note F_, 4
	note E_, 6
	note C_, 2
	note D_, 8
	note C_, 4
	octave 3
	note B_, 4
	note A_, 4
	note B_, 4
	octave 4
	note C_, 8
	note E_, 8
	note D_, 4
	note C_, 4
	octave 3
	note B_, 4
	octave 4
	note D_, 4
	note C_, 8
	octave 3
	note A_, 8
	octave 4
	note C_, 4
	note E_, 4
	note D_, 6
	note C_, 2
	octave 3
	note B_, 8
	sound_loop 0, .mainloop

Music_PalletTown_Ch3::
	note_type 12, 1, 4
	octave 3
	note C_, 1
	rest 1
	note E_, 1
	rest 1
.mainloop:
	note G_, 2
	rest 2
	note F_, 2
	rest 2
	note E_, 3
	rest 1
	note C_, 2
	rest 2
	note D_, 8
	note C_, 2
	rest 2
	octave 2
	note B_, 2
	rest 2
	note A_, 2
	rest 2
	note B_, 2
	rest 2
	octave 3
	note C_, 8
	note E_, 8
	note D_, 2
	rest 2
	note C_, 2
	rest 2
	octave 2
	note B_, 2
	rest 2
	octave 3
	note D_, 2
	rest 2
	note C_, 8
	octave 2
	note A_, 8
	octave 3
	note C_, 2
	rest 2
	note E_, 2
	rest 2
	note D_, 3
	rest 1
	note C_, 2
	rest 2
	octave 2
	note B_, 8
	sound_loop 0, .mainloop

Music_PalletTown_Ch4::
	drum_speed 12
	rest 16
.mainloop:
	drum_note 16, 4
	drum_note 16, 4
	drum_note 16, 4
	drum_note 16, 4
	drum_note 16, 4
	drum_note 16, 4
	drum_note 16, 2
	drum_note 16, 2
	drum_note 16, 4
	sound_loop 0, .mainloop
