Music_WildBattle_Ch1::
	tempo 112
	volume 7, 7
	duty_cycle 3
	vibrato 6, 3, 4
	note_type 12, 11, 1
	octave 4
	note C_, 1
	octave 3
	note B_, 1
	note A#, 1
	note A_, 1
	note A#, 1
	note A_, 1
	note G#, 1
	note G_, 1
	note G#, 1
	note G_, 1
	note F#, 1
	note F_, 1
	note F#, 1
	note F_, 1
	note E_, 1
	note D#, 1
.mainloop:
	note_type 12, 11, 5
	note E_, 4
	note D_, 4
	note E_, 4
	note G_, 4
	note_type 12, 11, 7
	octave 4
	note C_, 8
	octave 3
	note G_, 8
	note_type 12, 11, 5
	note E_, 4
	note D_, 4
	note C_, 4
	note D_, 4
	note_type 12, 11, 1
	note E_, 2
	note E_, 2
	note_type 12, 11, 5
	note D_, 4
	note_type 12, 11, 1
	note E_, 2
	note E_, 2
	note_type 12, 11, 5
	note G_, 4
	note_type 12, 11, 1
	note E_, 2
	note E_, 2
	note_type 12, 11, 5
	note A_, 4
	note_type 12, 11, 1
	note E_, 2
	note E_, 2
	note_type 12, 11, 5
	note B_, 4
	note_type 12, 11, 1
	note E_, 2
	note E_, 2
	note_type 12, 11, 5
	octave 4
	note C_, 4
	octave 3
	note E_, 4
	note D_, 4
	note C_, 4
	note_type 12, 11, 7
	note D_, 8
	note C_, 8
	note_type 12, 11, 1
	note E_, 2
	note E_, 2
	note_type 12, 11, 5
	note D_, 4
	note_type 12, 11, 1
	note E_, 2
	note E_, 2
	note_type 12, 11, 5
	note G_, 4
	note_type 12, 11, 1
	note E_, 2
	note E_, 2
	note_type 12, 11, 5
	note A_, 4
	note_type 12, 11, 1
	note E_, 2
	note E_, 2
	note_type 12, 11, 5
	note B_, 4
	note_type 12, 11, 7
	octave 4
	note C_, 6
	octave 3
	note G_, 6
	note E_, 4
	sound_loop 0, .mainloop

Music_WildBattle_Ch2::
	duty_cycle 3
	vibrato 8, 2, 5
	note_type 12, 12, 1
	octave 4
	note G_, 1
	note F#, 1
	note F_, 1
	note E_, 1
	note F_, 1
	note E_, 1
	note D#, 1
	note D_, 1
	note D#, 1
	note D_, 1
	note C#, 1
	note C_, 1
	note C#, 1
	note C_, 1
	octave 3
	note B_, 1
	note A#, 1
.mainloop:
	note_type 12, 12, 6
	octave 4
	note C_, 4
	octave 3
	note B_, 4
	octave 4
	note C_, 4
	note E_, 4
	note_type 12, 12, 7
	note G_, 8
	note E_, 8
	note_type 12, 12, 6
	note C_, 4
	octave 3
	note B_, 4
	note A_, 4
	note B_, 4
	note_type 12, 12, 7
	octave 4
	note C_, 8
	octave 3
	note A_, 8
	note_type 12, 12, 6
	octave 4
	note C_, 6
	note D_, 6
	note E_, 4
	note_type 12, 12, 7
	note D_, 8
	note C_, 8
	note_type 12, 12, 6
	note E_, 6
	note D_, 6
	note C_, 4
	note_type 12, 12, 7
	note D_, 8
	note C_, 8
	note_type 12, 12, 6
	note C_, 6
	note D_, 6
	note E_, 4
	note_type 12, 12, 7
	note G_, 8
	note E_, 8
	sound_loop 0, .mainloop

Music_WildBattle_Ch3::
	note_type 12, 1, 9
	octave 3
	note G_, 1
	rest 1
	note F#, 1
	rest 1
	note F_, 1
	rest 1
	note E_, 1
	rest 1
	note F_, 1
	rest 1
	note E_, 1
	rest 1
	note D#, 1
	rest 1
	note D_, 1
	rest 1
	note D#, 1
	rest 1
	note D_, 1
	rest 1
	note C#, 1
	rest 1
	note C_, 1
	rest 1
	note C#, 1
	rest 1
	note C_, 1
	rest 1
	octave 2
	note B_, 1
	rest 1
	note A#, 1
	rest 1
.mainloop:
	octave 3
	note C_, 2
	rest 2
	note G_, 2
	rest 2
	note C_, 2
	rest 2
	note G_, 2
	rest 2
	note C_, 2
	rest 2
	note G_, 2
	rest 2
	note C_, 2
	rest 2
	note G_, 2
	rest 2
	note C_, 2
	rest 2
	note G_, 2
	rest 2
	note C_, 2
	rest 2
	note G_, 2
	rest 2
	note C_, 2
	rest 2
	note G_, 2
	rest 2
	note C_, 2
	rest 2
	note G_, 2
	rest 2
	octave 2
	note B_, 2
	rest 2
	octave 3
	note F#, 2
	rest 2
	octave 2
	note B_, 2
	rest 2
	octave 3
	note F#, 2
	rest 2
	octave 2
	note B_, 2
	rest 2
	octave 3
	note F#, 2
	rest 2
	octave 2
	note B_, 2
	rest 2
	octave 3
	note F#, 2
	rest 2
	octave 2
	note A_, 2
	rest 2
	octave 3
	note E_, 2
	rest 2
	octave 2
	note A_, 2
	rest 2
	octave 3
	note E_, 2
	rest 2
	octave 2
	note A_, 2
	rest 2
	octave 3
	note E_, 2
	rest 2
	octave 2
	note A_, 2
	rest 2
	octave 3
	note E_, 2
	rest 2
	note C_, 2
	rest 2
	note G_, 2
	rest 2
	note C_, 2
	rest 2
	note G_, 2
	rest 2
	note C_, 2
	rest 2
	note G_, 2
	rest 2
	note C_, 2
	rest 2
	note G_, 2
	rest 2
	sound_loop 0, .mainloop

Music_WildBattle_Ch4::
	drum_speed 12
	rest 16
.mainloop:
	sound_call .sub1
	sound_call .sub1
	sound_call .sub1
	sound_call .sub2
	sound_loop 0, .mainloop

.sub1:
	drum_note 17, 2
	drum_note 18, 2
	drum_note 17, 2
	drum_note 18, 2
	drum_note 17, 2
	drum_note 18, 2
	drum_note 17, 2
	drum_note 18, 2
	sound_ret

.sub2:
	drum_note 17, 2
	drum_note 18, 2
	drum_note 17, 2
	drum_note 18, 2
	drum_note 17, 2
	drum_note 18, 2
	drum_note 17, 1
	drum_note 17, 1
	drum_note 18, 1
	drum_note 18, 1
	sound_ret
